# xmcd CD database file
#
# Track frame offsets:
#	150
#	12517
#	24948
#	37460
#	49385
#	61654
#	72167
#	84169
#	97578
#	110818
#	122725
#	130806
#	144189
#	156362
#	165902
#	178032
#	189787
#	200648
#	213074
#	220259
#	234058
#	246490
#	260282
#	273143
#	283106
#
# Disc length: 3925 seconds
#
# Revision: 0
# Processed by: cddbd v1.5.1PL2 Copyright (c) Steve Scherf et al.
# Submitted via: CDex 1.51
#
DISCID=580f5319
DTITLE=Various Artist - 100xNo.1 Country Hits CD2
DYEAR=2005
DGENRE=Country
TTITLE0=Eddy Arnold - Texarkana Baby
TTITLE1=Hank Williams - Lovesick Blues
TTITLE2=Eddy Arnold - Just A Little Lovin'
TTITLE3=Eddy Arnold - Bouquet Of Roses
TTITLE4=Red Foley - Tennessee Saturday Night
TTITLE5=Eddy Arnold - One Kiss To Many
TTITLE6=Eddy Arnold - Im Throwing Rice
TTITLE7=Vaughn Monroe - Riders In The Sky
TTITLE8=Eddy Arnold - Take Me In Your Arms And Hold Me
TTITLE9=Eddy Arnold - Don't Rob Another Man's Castle
TTITLE10=George Morgan - Candy Kisses
TTITLE11=Hank Williams - Mind Your Own Business
TTITLE12=Kenny Roberts - I'll Never See Maggie Alone
TTITLE13=Hank Snow - I'm Moving On
TTITLE14=Hank Williams - Long Gone Lonesome Blues
TTITLE15=Tennessee Ernie Ford - The Shotgun Boogie
TTITLE16=Hank Williams - Moanin' The Blues
TTITLE17=Left Frizzel - I Love You A Thousand Ways
TTITLE18=Red Foley - Chattanooga Shoe Shine Boy
TTITLE19=Red Foley - Birmingham Bounde
TTITLE20=Hank Williams - Cold, Cold Heart
TTITLE21=Red Foley and Ernest Tubb - Goodnight Irene
TTITLE22=Carl Smith - Let Old Mother Nature Have Her Way
TTITLE23=Eddy Arnold - I Wanna Play House (With You)
TTITLE24=Red Foley - M-I-S-S-I-S-S-I-P-P-I
EXTD=YEAR: 2005
EXTT0=
EXTT1=
EXTT2=
EXTT3=
EXTT4=
EXTT5=
EXTT6=
EXTT7=
EXTT8=
EXTT9=
EXTT10=
EXTT11=
EXTT12=
EXTT13=
EXTT14=
EXTT15=
EXTT16=
EXTT17=
EXTT18=
EXTT19=
EXTT20=
EXTT21=
EXTT22=
EXTT23=
EXTT24=
PLAYORDER=
